<svg width="44" height="44" viewBox="0 0 44 44" fill="none" xmlns="http://www.w3.org/2000/svg">
<path d="M16.2 30.7L19.5833 27.2563L14.3271 22L19.5833 16.7437L16.2 13.3L7.5 22L16.2 30.7ZM27.8 30.7L36.5 22L27.8 13.3L24.4167 16.7437L29.6729 22L24.4167 27.2563L27.8 30.7ZM5.08333 43.75C3.75417 43.75 2.61592 43.2771 1.66858 42.3314C0.722861 41.3841 0.25 40.2458 0.25 38.9167V5.08333C0.25 3.75417 0.722861 2.61592 1.66858 1.66858C2.61592 0.722861 3.75417 0.25 5.08333 0.25H38.9167C40.2458 0.25 41.3841 0.722861 42.3314 1.66858C43.2771 2.61592 43.75 3.75417 43.75 5.08333V38.9167C43.75 40.2458 43.2771 41.3841 42.3314 42.3314C41.3841 43.2771 40.2458 43.75 38.9167 43.75H5.08333ZM5.08333 38.9167H38.9167V5.08333H5.08333V38.9167Z" fill="#0AEE1C"/>
</svg>
