<svg width="41" height="40" viewBox="0 0 41 40" fill="none" xmlns="http://www.w3.org/2000/svg">
<circle cx="20.0898" cy="20" r="20" fill="#B68E05"/>
<mask id="mask0_13478_143239" style="mask-type:alpha" maskUnits="userSpaceOnUse" x="8" y="8" width="25" height="24">
<rect x="8.33984" y="8" width="24" height="24" fill="#D9D9D9"/>
</mask>
<g mask="url(#mask0_13478_143239)">
<path d="M23.3398 21C23.8898 21 24.3608 20.804 24.7528 20.412C25.1442 20.0207 25.3398 19.55 25.3398 19C25.3398 18.45 25.1442 17.979 24.7528 17.587C24.3608 17.1957 23.8898 17 23.3398 17C22.7898 17 22.3192 17.1957 21.9278 17.587C21.5358 17.979 21.3398 18.45 21.3398 19C21.3398 19.55 21.5358 20.0207 21.9278 20.412C22.3192 20.804 22.7898 21 23.3398 21ZM19.3398 25H27.3398V24.45C27.3398 23.7 26.9732 23.104 26.2398 22.662C25.5065 22.2207 24.5398 22 23.3398 22C22.1398 22 21.1732 22.2207 20.4398 22.662C19.7065 23.104 19.3398 23.7 19.3398 24.45V25ZM12.3398 28C11.7898 28 11.3192 27.8043 10.9278 27.413C10.5358 27.021 10.3398 26.55 10.3398 26V14C10.3398 13.45 10.5358 12.9793 10.9278 12.588C11.3192 12.196 11.7898 12 12.3398 12H18.3398L20.3398 14H28.3398C28.8898 14 29.3608 14.196 29.7528 14.588C30.1442 14.9793 30.3398 15.45 30.3398 16V26C30.3398 26.55 30.1442 27.021 29.7528 27.413C29.3608 27.8043 28.8898 28 28.3398 28H12.3398ZM12.3398 14V26H28.3398V16H19.5148L17.5148 14H12.3398Z" fill="white"/>
</g>
</svg>
