<svg width="58" height="58" viewBox="0 0 58 58" fill="none" xmlns="http://www.w3.org/2000/svg">
<mask id="mask0_13478_143192" style="mask-type:alpha" maskUnits="userSpaceOnUse" x="0" y="0" width="58" height="58">
<rect width="58" height="58" fill="#D9D9D9"/>
</mask>
<g mask="url(#mask0_13478_143192)">
<path d="M19.3333 43.5H38.6667V38.6667H19.3333V43.5ZM19.3333 33.8333H38.6667V29H19.3333V33.8333ZM14.5 53.1667C13.1708 53.1667 12.0334 52.6938 11.0877 51.7481C10.1403 50.8007 9.66666 49.6625 9.66666 48.3333V9.66666C9.66666 8.33749 10.1403 7.19924 11.0877 6.25191C12.0334 5.30619 13.1708 4.83333 14.5 4.83333H33.8333L48.3333 19.3333V48.3333C48.3333 49.6625 47.8605 50.8007 46.9147 51.7481C45.9674 52.6938 44.8292 53.1667 43.5 53.1667H14.5ZM31.4167 21.75V9.66666H14.5V48.3333H43.5V21.75H31.4167Z" fill="#3E98F5"/>
</g>
</svg>
