<svg width="80" height="80" viewBox="0 0 80 80" fill="none" xmlns="http://www.w3.org/2000/svg">
<mask id="mask0_13503_143174" style="mask-type:alpha" maskUnits="userSpaceOnUse" x="0" y="0" width="80" height="80">
<rect width="80" height="80" fill="#D9D9D9"/>
</mask>
<g mask="url(#mask0_13503_143174)">
<path d="M15 11.6667V36.25V35.9167V68.3333V11.6667ZM23.25 45H37.25C37.9167 44.0556 38.6528 43.1667 39.4583 42.3333C40.2639 41.5 41.1389 40.7222 42.0833 40H23.25V45ZM23.25 59.1667H33.5C33.3889 58.3333 33.3472 57.5 33.375 56.6667C33.4028 55.8333 33.4722 55 33.5833 54.1667H23.25V59.1667ZM15 73.3333C13.6667 73.3333 12.5 72.8333 11.5 71.8333C10.5 70.8333 10 69.6667 10 68.3333V11.6667C10 10.3333 10.5 9.16667 11.5 8.16667C12.5 7.16667 13.6667 6.66667 15 6.66667H45.0833L63.3333 24.9167V37.8333C62.5556 37.4445 61.75 37.125 60.9167 36.875C60.0833 36.625 59.2222 36.4167 58.3333 36.25V27.1667H42.5833V11.6667H15V68.3333H36.6667C37.2778 69.2778 37.9444 70.1667 38.6667 71C39.3889 71.8333 40.1667 72.6111 41 73.3333H15Z" fill="#3E98F5"/>
</g>
<path d="M55.052 64.173L52.2807 67L43 57.4671L52.2807 48L55.052 50.827L48.5426 57.4671L55.052 64.173Z" fill="#07CCF0"/>
<path d="M74 57.4671L64.6549 67L61.8836 64.173L68.4574 57.4671L61.948 50.827L64.7193 48L74 57.4671Z" fill="#07CCF0"/>
</svg>
