<svg width="48" height="50" viewBox="0 0 48 50" fill="none" xmlns="http://www.w3.org/2000/svg">
<path d="M5.5 49.1667C4.17083 49.1667 3.03339 48.6938 2.08767 47.7481C1.14033 46.8007 0.666667 45.6625 0.666667 44.3333V5.66666C0.666667 4.33749 1.14033 3.19924 2.08767 2.25191C3.03339 1.30619 4.17083 0.833328 5.5 0.833328H24.8333L39.3333 15.3333V25H34.5V17.75H22.4167V5.66666H5.5V44.3333H20V49.1667H5.5ZM35.225 31.1021L37.8229 33.7L28.4583 43.0042V45.5417H30.9958L40.3604 36.2375L42.8979 38.775L32.5062 49.1667H24.8333V41.4937L35.225 31.1021ZM42.8979 38.775L35.225 31.1021L38.7292 27.5979C39.1722 27.1549 39.7361 26.9333 40.4208 26.9333C41.1056 26.9333 41.6694 27.1549 42.1125 27.5979L46.4021 31.8875C46.8451 32.3305 47.0667 32.8944 47.0667 33.5792C47.0667 34.2639 46.8451 34.8278 46.4021 35.2708L42.8979 38.775Z" fill="#07CCF0"/>
</svg>
