<svg width="41" height="40" viewBox="0 0 41 40" fill="none" xmlns="http://www.w3.org/2000/svg">
<circle cx="20.0898" cy="20" r="20" fill="#6B2013"/>
<mask id="mask0_13478_143257" style="mask-type:alpha" maskUnits="userSpaceOnUse" x="8" y="8" width="25" height="24">
<rect x="8.33984" y="8" width="24" height="24" fill="#D9D9D9"/>
</mask>
<g mask="url(#mask0_13478_143257)">
<path d="M13.3398 25.85C14.2398 24.9667 15.2858 24.2707 16.4778 23.762C17.6692 23.254 18.9565 23 20.3398 23C21.7232 23 23.0108 23.254 24.2028 23.762C25.3942 24.2707 26.4398 24.9667 27.3398 25.85V13H13.3398V25.85ZM20.3398 21C21.3065 21 22.1315 20.6583 22.8148 19.975C23.4982 19.2917 23.8398 18.4667 23.8398 17.5C23.8398 16.5333 23.4982 15.7083 22.8148 15.025C22.1315 14.3417 21.3065 14 20.3398 14C19.3732 14 18.5482 14.3417 17.8648 15.025C17.1815 15.7083 16.8398 16.5333 16.8398 17.5C16.8398 18.4667 17.1815 19.2917 17.8648 19.975C18.5482 20.6583 19.3732 21 20.3398 21ZM13.3398 29C12.7898 29 12.3188 28.8043 11.9268 28.413C11.5355 28.021 11.3398 27.55 11.3398 27V13C11.3398 12.45 11.5355 11.979 11.9268 11.587C12.3188 11.1957 12.7898 11 13.3398 11H27.3398C27.8898 11 28.3608 11.1957 28.7528 11.587C29.1442 11.979 29.3398 12.45 29.3398 13V27C29.3398 27.55 29.1442 28.021 28.7528 28.413C28.3608 28.8043 27.8898 29 27.3398 29H13.3398ZM15.3398 27H25.3398V26.75C24.6398 26.1667 23.8648 25.7293 23.0148 25.438C22.1648 25.146 21.2732 25 20.3398 25C19.4065 25 18.5148 25.146 17.6648 25.438C16.8148 25.7293 16.0398 26.1667 15.3398 26.75V27ZM20.3398 19C19.9232 19 19.5692 18.854 19.2778 18.562C18.9858 18.2707 18.8398 17.9167 18.8398 17.5C18.8398 17.0833 18.9858 16.7293 19.2778 16.438C19.5692 16.146 19.9232 16 20.3398 16C20.7565 16 21.1105 16.146 21.4018 16.438C21.6938 16.7293 21.8398 17.0833 21.8398 17.5C21.8398 17.9167 21.6938 18.2707 21.4018 18.562C21.1105 18.854 20.7565 19 20.3398 19Z" fill="white"/>
</g>
</svg>
