<svg width="41" height="40" viewBox="0 0 41 40" fill="none" xmlns="http://www.w3.org/2000/svg">
<circle cx="20.0898" cy="20" r="20" fill="#7CA935"/>
<mask id="mask0_13478_143230" style="mask-type:alpha" maskUnits="userSpaceOnUse" x="8" y="9" width="25" height="24">
<rect x="8.33984" y="9" width="24" height="24" fill="#D9D9D9"/>
</mask>
<g mask="url(#mask0_13478_143230)">
<path d="M15.3398 23C15.6232 23 15.8608 22.904 16.0528 22.712C16.2442 22.5207 16.3398 22.2833 16.3398 22C16.3398 21.7167 16.2442 21.479 16.0528 21.287C15.8608 21.0957 15.6232 21 15.3398 21C15.0565 21 14.8188 21.0957 14.6268 21.287C14.4355 21.479 14.3398 21.7167 14.3398 22C14.3398 22.2833 14.4355 22.5207 14.6268 22.712C14.8188 22.904 15.0565 23 15.3398 23ZM15.3398 19C15.6232 19 15.8608 18.904 16.0528 18.712C16.2442 18.5207 16.3398 18.2833 16.3398 18C16.3398 17.7167 16.2442 17.479 16.0528 17.287C15.8608 17.0957 15.6232 17 15.3398 17C15.0565 17 14.8188 17.0957 14.6268 17.287C14.4355 17.479 14.3398 17.7167 14.3398 18C14.3398 18.2833 14.4355 18.5207 14.6268 18.712C14.8188 18.904 15.0565 19 15.3398 19ZM17.3398 23H26.3398V21H17.3398V23ZM17.3398 19H26.3398V17H17.3398V19ZM16.3398 30V28H12.3398C11.7898 28 11.3192 27.8043 10.9278 27.413C10.5358 27.021 10.3398 26.55 10.3398 26V14C10.3398 13.45 10.5358 12.979 10.9278 12.587C11.3192 12.1957 11.7898 12 12.3398 12H28.3398C28.8898 12 29.3608 12.1957 29.7528 12.587C30.1442 12.979 30.3398 13.45 30.3398 14V26C30.3398 26.55 30.1442 27.021 29.7528 27.413C29.3608 27.8043 28.8898 28 28.3398 28H24.3398V30H16.3398ZM12.3398 26H28.3398V14H12.3398V26Z" fill="white"/>
</g>
</svg>
