<svg width="41" height="40" viewBox="0 0 41 40" fill="none" xmlns="http://www.w3.org/2000/svg">
<circle cx="20.0898" cy="20" r="20" fill="#0A8CA4"/>
<path d="M20.2396 11.4148L11.7546 19.8998L20.2396 28.3848L28.7246 19.8998L20.2396 11.4148ZM20.9466 9.29279L30.8466 19.1928C31.0341 19.3803 31.1394 19.6346 31.1394 19.8998C31.1394 20.165 31.0341 20.4193 30.8466 20.6068L20.9466 30.5068C20.7591 30.6943 20.5048 30.7996 20.2396 30.7996C19.9745 30.7996 19.7202 30.6943 19.5326 30.5068L9.63263 20.6068C9.44516 20.4193 9.33984 20.165 9.33984 19.8998C9.33984 19.6346 9.44516 19.3803 9.63263 19.1928L19.5326 9.29279C19.7202 9.10532 19.9745 9 20.2396 9C20.5048 9 20.7591 9.10532 20.9466 9.29279ZM21.2396 17.8998V15.3998L24.7396 18.8998L21.2396 22.3998V19.8998H18.2396V22.8998H16.2396V18.8998C16.2396 18.6346 16.345 18.3802 16.5325 18.1927C16.7201 18.0051 16.9744 17.8998 17.2396 17.8998H21.2396Z" fill="#FEFEFE"/>
</svg>
