<svg version="1.1" id="Layer_1" xmlns="http://www.w3.org/2000/svg" xmlns:xlink="http://www.w3.org/1999/xlink" x="0px" y="0px"
	 width="23px" height="22px" viewBox="0 0 23 22" enable-background="new 0 0 23 22" xml:space="preserve">
<path fill="currentColor" enable-background="new" d="M20.334,9.901c-0.561-0.391-1.18-0.689-1.834-0.884V6h-7.713L8.954,4.167h-5.12
	V17h6.682c0.197,0.662,0.498,1.28,0.885,1.834H2.917c-0.243,0-0.476-0.097-0.648-0.269S2,18.16,2,17.918V3.25
	c0-0.243,0.097-0.476,0.269-0.648s0.405-0.269,0.648-0.269h6.796l1.833,1.833h7.87c0.244,0,0.477,0.096,0.648,0.268
	c0.172,0.172,0.27,0.405,0.27,0.648V9.901z"/>
<path fill="currentColor" enable-background="new" d="M16.666,12.417v2.75h-2.75V17h2.75v2.75H18.5V17h2.75v-1.833H18.5v-2.75H16.666
	z"/>
</svg>
