<svg width="33" height="34" viewBox="0 0 33 34" fill="none" xmlns="http://www.w3.org/2000/svg">
<path d="M3.66667 33.5C2.65833 33.5 1.79483 33.1413 1.07617 32.4238C0.358722 31.7052 0 30.8417 0 29.8333V4.16667C0 3.15833 0.358722 2.29483 1.07617 1.57617C1.79483 0.858722 2.65833 0.5 3.66667 0.5H20.1667V4.16667H3.66667V29.8333H29.3333V13.3333H33V29.8333C33 30.8417 32.6413 31.7052 31.9238 32.4238C31.2052 33.1413 30.3417 33.5 29.3333 33.5H3.66667ZM25.6667 11.5V7.83333H22V4.16667H25.6667V0.5H29.3333V4.16667H33V7.83333H29.3333V11.5H25.6667ZM5.5 26.1667H27.5L20.625 17L15.125 24.3333L11 18.8333L5.5 26.1667Z" fill="currentColor"/>
</svg>
