<svg width="34" height="34" viewBox="0 0 34 34" fill="none" xmlns="http://www.w3.org/2000/svg">
<path d="M4.16667 33.5C3.15833 33.5 2.29483 33.1413 1.57617 32.4238C0.858722 31.7052 0.5 30.8417 0.5 29.8333V4.16667C0.5 3.15833 0.858722 2.29483 1.57617 1.57617C2.29483 0.858722 3.15833 0.5 4.16667 0.5H20.6667V4.16667H4.16667V29.8333H29.8333V13.3333H33.5V29.8333C33.5 30.8417 33.1413 31.7052 32.4238 32.4238C31.7052 33.1413 30.8417 33.5 29.8333 33.5H4.16667ZM26.1667 11.5V7.83333H22.5V4.16667H26.1667V0.5H29.8333V4.16667H33.5V7.83333H29.8333V11.5H26.1667Z" fill="currentColor"/>
<path d="M18.75 26H11.75C11.2542 26 10.8388 25.84 10.504 25.52C10.168 25.2011 10 24.8056 10 24.3333V17.6667C10 17.1944 10.168 16.7983 10.504 16.4783C10.8388 16.1594 11.2542 16 11.75 16H18.75C19.2458 16 19.6618 16.1594 19.9978 16.4783C20.3326 16.7983 20.5 17.1944 20.5 17.6667V19.3333L24 17.5833V24.4167L20.5 22.6667V24.3333C20.5 24.8056 20.3326 25.2011 19.9978 25.52C19.6618 25.84 19.2458 26 18.75 26Z" fill="currentColor"/>
</svg>
