<svg width="20" height="20" viewBox="0 0 20 20" fill="none" xmlns="http://www.w3.org/2000/svg">
<mask id="mask0_1_49" style="mask-type:alpha" maskUnits="userSpaceOnUse" x="0" y="0" width="20" height="20">
<rect width="20" height="20" fill="#D9D9D9"/>
</mask>
<g mask="url(#mask0_1_49)">
<path d="M3.33335 17.5C2.87502 17.5 2.48266 17.3368 2.15627 17.0104C1.82988 16.684 1.66669 16.2917 1.66669 15.8333V6.66666C1.66669 6.20833 1.82988 5.81597 2.15627 5.48958C2.48266 5.16319 2.87502 5 3.33335 5H6.66669V3.33333C6.66669 2.875 6.82988 2.48264 7.15627 2.15625C7.48266 1.82986 7.87502 1.66666 8.33335 1.66666H11.6667C12.125 1.66666 12.5174 1.82986 12.8438 2.15625C13.1702 2.48264 13.3334 2.875 13.3334 3.33333V5H16.6667C17.125 5 17.5174 5.16319 17.8438 5.48958C18.1702 5.81597 18.3334 6.20833 18.3334 6.66666V15.8333C18.3334 16.2917 18.1702 16.684 17.8438 17.0104C17.5174 17.3368 17.125 17.5 16.6667 17.5H3.33335ZM3.33335 15.8333H16.6667V6.66666H3.33335V15.8333ZM8.33335 5H11.6667V3.33333H8.33335V5Z" fill="white"/>
<path d="M11.6667 14.6667H5V13H11.6667V14.6667Z" fill="white"/>
<path d="M15 12.1667H5V10.5H15V12.1667Z" fill="white"/>
<path d="M15 9.66667H5V8H15V9.66667Z" fill="white"/>
</g>
</svg>
