<svg width="18" height="20" viewBox="0 0 18 20" fill="none" xmlns="http://www.w3.org/2000/svg">
<path d="M8.34375 0.913462C8.9375 0.304487 9.65625 0 10.5 0C11.3438 0 12.0469 0.304487 12.6094 0.913462C13.2031 1.49038 13.5 2.21154 13.5 3.07692H18V8.46154H16.5C16.0625 8.46154 15.7031 8.60577 15.4219 8.89423C15.1406 9.18269 15 9.55128 15 10C15 10.4487 15.1406 10.8173 15.4219 11.1058C15.7031 11.3942 16.0625 11.5385 16.5 11.5385H18V16.9231H13.5C13.5 17.7885 13.2031 18.5256 12.6094 19.1346C12.0469 19.7115 11.3438 20 10.5 20C9.65625 20 8.9375 19.7115 8.34375 19.1346C7.78125 18.5256 7.5 17.7885 7.5 16.9231H3V13.0769C2.15625 13.0769 1.4375 12.7885 0.84375 12.2115C0.28125 11.6026 0 10.8654 0 10C0 9.13461 0.28125 8.41346 0.84375 7.83654C1.4375 7.22756 2.15625 6.92308 3 6.92308V3.07692H7.5C7.5 2.21154 7.78125 1.49038 8.34375 0.913462ZM11.5781 1.97115C11.2969 1.68269 10.9375 1.53846 10.5 1.53846C10.0625 1.53846 9.70312 1.68269 9.42188 1.97115C9.14062 2.25962 9 2.62821 9 3.07692V4.61538H4.5V8.46154H3C2.5625 8.46154 2.20312 8.60577 1.92188 8.89423C1.64062 9.18269 1.5 9.55128 1.5 10C1.5 10.4487 1.64062 10.8173 1.92188 11.1058C2.20312 11.3942 2.5625 11.5385 3 11.5385H4.5V15.3846H9V16.9231C9 17.3718 9.14062 17.7404 9.42188 18.0288C9.70312 18.3173 10.0625 18.4615 10.5 18.4615C10.9375 18.4615 11.2969 18.3173 11.5781 18.0288C11.8594 17.7404 12 17.3718 12 16.9231V15.3846H16.5V13.0769C15.6562 13.0769 14.9375 12.7885 14.3438 12.2115C13.7812 11.6026 13.5 10.8654 13.5 10C13.5 9.13461 13.7812 8.41346 14.3438 7.83654C14.9375 7.22756 15.6562 6.92308 16.5 6.92308V4.61538H12V3.07692C12 2.62821 11.8594 2.25962 11.5781 1.97115Z" fill="currentColor"/>
</svg>
