<svg width="18" height="14" viewBox="0 0 18 14" fill="none" xmlns="http://www.w3.org/2000/svg">
<path d="M10.667 13.6666V11.9999H13.167C13.4031 11.9999 13.601 11.9201 13.7607 11.7603C13.9205 11.6006 14.0003 11.4027 14.0003 11.1666V9.49992C14.0003 8.97214 14.1531 8.49297 14.4587 8.06242C14.7642 7.63186 15.167 7.32631 15.667 7.14575V6.85409C15.167 6.67353 14.7642 6.36797 14.4587 5.93742C14.1531 5.50686 14.0003 5.0277 14.0003 4.49992V2.83325C14.0003 2.59714 13.9205 2.39922 13.7607 2.2395C13.601 2.07978 13.4031 1.99992 13.167 1.99992H10.667V0.333252H13.167C13.8614 0.333252 14.4517 0.576307 14.9378 1.06242C15.4239 1.54853 15.667 2.13881 15.667 2.83325V4.49992C15.667 4.73603 15.7469 4.93395 15.9066 5.09367C16.0663 5.25339 16.2642 5.33325 16.5003 5.33325H17.3337V8.66658H16.5003C16.2642 8.66658 16.0663 8.74645 15.9066 8.90617C15.7469 9.06589 15.667 9.26381 15.667 9.49992V11.1666C15.667 11.861 15.4239 12.4513 14.9378 12.9374C14.4517 13.4235 13.8614 13.6666 13.167 13.6666H10.667ZM4.83366 13.6666C4.13921 13.6666 3.54894 13.4235 3.06283 12.9374C2.57671 12.4513 2.33366 11.861 2.33366 11.1666V9.49992C2.33366 9.26381 2.2538 9.06589 2.09408 8.90617C1.93435 8.74645 1.73644 8.66658 1.50033 8.66658H0.666992V5.33325H1.50033C1.73644 5.33325 1.93435 5.25339 2.09408 5.09367C2.2538 4.93395 2.33366 4.73603 2.33366 4.49992V2.83325C2.33366 2.13881 2.57671 1.54853 3.06283 1.06242C3.54894 0.576307 4.13921 0.333252 4.83366 0.333252H7.33366V1.99992H4.83366C4.59755 1.99992 4.39963 2.07978 4.23991 2.2395C4.08019 2.39922 4.00033 2.59714 4.00033 2.83325V4.49992C4.00033 5.0277 3.84755 5.50686 3.54199 5.93742C3.23644 6.36797 2.83366 6.67353 2.33366 6.85409V7.14575C2.83366 7.32631 3.23644 7.63186 3.54199 8.06242C3.84755 8.49297 4.00033 8.97214 4.00033 9.49992V11.1666C4.00033 11.4027 4.08019 11.6006 4.23991 11.7603C4.39963 11.9201 4.59755 11.9999 4.83366 11.9999H7.33366V13.6666H4.83366Z" fill="white"/>
</svg>
