<svg width="7" height="14" viewBox="0 0 7 14" fill="none" xmlns="http://www.w3.org/2000/svg">
  <path
    d="M1.75 12.25H0V1.75H1.75V12.25ZM1.75 12.25H0V1.75H1.75V12.25ZM1.75 12.25H5.25V1.75H1.75V12.25ZM1.75 14C1.26875 14 0.856917 13.8288 0.5145 13.4864C0.1715 13.1434 0 12.7312 0 12.25V1.75C0 1.26875 0.1715 0.856917 0.5145 0.5145C0.856917 0.1715 1.26875 0 1.75 0H5.25C5.73125 0 6.14337 0.1715 6.48637 0.5145C6.82879 0.856917 7 1.26875 7 1.75V12.25C7 12.7312 6.82879 13.1434 6.48637 13.4864C6.14337 13.8288 5.73125 14 5.25 14H1.75Z"
    fill="white" />
</svg>