<svg width="13" height="14" viewBox="0 0 13 14" fill="none" xmlns="http://www.w3.org/2000/svg">
  <path
    d="M1.75 12.25H5.25V1.75H1.75V12.25ZM7 12.25H5.25V1.75H7V12.25ZM7 12.25H10.5V1.75H7V12.25ZM1.75 14C1.26875 14 0.856917 13.8288 0.5145 13.4864C0.1715 13.1434 0 12.7312 0 12.25V1.75C0 1.26875 0.1715 0.856917 0.5145 0.5145C0.856917 0.1715 1.26875 0 1.75 0H10.5C10.9812 0 11.3934 0.1715 11.7364 0.5145C12.0788 0.856917 12.25 1.26875 12.25 1.75V12.25C12.25 12.7312 12.0788 13.1434 11.7364 13.4864C11.3934 13.8288 10.9812 14 10.5 14H1.75Z"
    fill="white" />
</svg>