<svg width="18" height="14" viewBox="0 0 18 14" fill="none" xmlns="http://www.w3.org/2000/svg">
  <path
    d="M1.75 12.25H5.25V1.75H1.75V12.25ZM7 12.25H10.5V1.75H7V12.25ZM12.25 12.25H15.75V1.75H12.25V12.25ZM1.75 14C1.26875 14 0.856917 13.8288 0.5145 13.4864C0.1715 13.1434 0 12.7312 0 12.25V1.75C0 1.26875 0.1715 0.856917 0.5145 0.5145C0.856917 0.1715 1.26875 0 1.75 0H15.75C16.2313 0 16.6434 0.1715 16.9864 0.5145C17.3288 0.856917 17.5 1.26875 17.5 1.75V12.25C17.5 12.7312 17.3288 13.1434 16.9864 13.4864C16.6434 13.8288 16.2313 14 15.75 14H1.75Z"
    fill="white" />
</svg>