<svg width="18" height="12" viewBox="0 0 18 12" fill="none" xmlns="http://www.w3.org/2000/svg">
<path d="M6.50033 11.8333C4.87533 11.8333 3.49685 11.2673 2.36491 10.1354C1.23296 9.00343 0.666992 7.62496 0.666992 5.99996C0.666992 4.37496 1.23296 2.99649 2.36491 1.86454C3.49685 0.732598 4.87533 0.166626 6.50033 0.166626C8.12533 0.166626 9.5038 0.732598 10.6357 1.86454C11.7677 2.99649 12.3337 4.37496 12.3337 5.99996C12.3337 7.62496 11.7677 9.00343 10.6357 10.1354C9.5038 11.2673 8.12533 11.8333 6.50033 11.8333ZM12.3337 11.75V10.0833C13.3059 9.88885 14.1045 9.40968 14.7295 8.64579C15.3545 7.8819 15.667 6.99996 15.667 5.99996C15.667 4.99996 15.3545 4.11802 14.7295 3.35413C14.1045 2.59024 13.3059 2.11107 12.3337 1.91663V0.249959C13.7781 0.444404 14.9725 1.08677 15.917 2.17704C16.8614 3.26732 17.3337 4.54163 17.3337 5.99996C17.3337 7.45829 16.8614 8.7326 15.917 9.82288C14.9725 10.9132 13.7781 11.5555 12.3337 11.75ZM6.50033 10.1666C7.6531 10.1666 8.63574 9.76038 9.44824 8.94788C10.2607 8.13538 10.667 7.15274 10.667 5.99996C10.667 4.84718 10.2607 3.86454 9.44824 3.05204C8.63574 2.23954 7.6531 1.83329 6.50033 1.83329C5.34755 1.83329 4.36491 2.23954 3.55241 3.05204C2.73991 3.86454 2.33366 4.84718 2.33366 5.99996C2.33366 7.15274 2.73991 8.13538 3.55241 8.94788C4.36491 9.76038 5.34755 10.1666 6.50033 10.1666Z" fill="white"/>
</svg>
