<svg width="20" height="19" viewBox="0 0 20 19" fill="none" xmlns="http://www.w3.org/2000/svg">
  <path
    d="M18.7394 17.0665C19.4034 16.4015 19.7354 15.5885 19.7354 14.6255C19.7354 13.6635 19.4034 12.8505 18.7394 12.1865C18.0744 11.5205 17.2604 11.1885 16.2984 11.1885C15.5044 11.1885 14.8054 11.4255 14.2024 11.8995C13.5984 12.3735 13.1894 12.9765 12.9754 13.7105L12.7504 13.7105L11.0274 13.7105L11.0274 4.54248L12.7504 4.54248L12.9754 4.54248C13.1894 5.27548 13.5984 5.87948 14.2024 6.35348C14.8054 6.82748 15.5044 7.06348 16.2984 7.06348C17.2614 7.06348 18.0744 6.73148 18.7394 6.06748C19.4034 5.40148 19.7354 4.58848 19.7354 3.62548C19.7354 2.66348 19.4034 1.85048 18.7394 1.18648C18.0744 0.520477 17.2614 0.188477 16.2984 0.188477C15.5044 0.188477 14.8054 0.425477 14.2024 0.899477C13.5984 1.37248 13.1894 1.97648 12.9754 2.70948L12.7504 2.70948L9.19335 2.70948L9.19335 8.20948L7.24635 8.20948C7.03235 7.47548 6.62335 6.87248 6.02035 6.39848C5.41635 5.92448 4.71735 5.68748 3.92235 5.68748C2.96035 5.68748 2.14635 6.02048 1.48235 6.68548C0.818351 7.35048 0.485352 8.16248 0.485352 9.12548C0.485352 10.0885 0.818351 10.9015 1.48235 11.5665C2.14635 12.2305 2.96135 12.5625 3.92235 12.5625C4.71735 12.5625 5.41535 12.3265 6.02035 11.8525C6.62335 11.3785 7.03235 10.7755 7.24635 10.0415L9.19335 10.0415L9.19335 15.5415L12.7504 15.5415L12.9754 15.5415C13.1894 16.2745 13.5984 16.8785 14.2024 17.3525C14.8054 17.8265 15.5044 18.0625 16.2984 18.0625C17.2614 18.0635 18.0744 17.7305 18.7394 17.0665ZM15.1644 2.49148C15.4774 2.17848 15.8554 2.02148 16.2984 2.02148C16.7414 2.02148 17.1204 2.17748 17.4334 2.49148C17.7464 2.80548 17.9024 3.18248 17.9024 3.62548C17.9024 4.06848 17.7464 4.44748 17.4334 4.76048C17.1204 5.07348 16.7414 5.23048 16.2984 5.23048C15.8554 5.23048 15.4774 5.07448 15.1644 4.76048C14.8514 4.44748 14.6944 4.06848 14.6944 3.62548C14.6944 3.18248 14.8514 2.80548 15.1644 2.49148ZM5.05935 10.2605C4.74535 10.5735 4.36735 10.7305 3.92335 10.7305C3.48135 10.7305 3.10235 10.5745 2.78835 10.2605C2.47535 9.94748 2.31835 9.56948 2.31835 9.12548C2.31835 8.68148 2.47535 8.30548 2.78835 7.99048C3.10135 7.67748 3.48035 7.52148 3.92335 7.52148C4.36635 7.52148 4.74435 7.67748 5.05935 7.99048C5.37135 8.30548 5.52735 8.68248 5.52735 9.12548C5.52735 9.56848 5.37135 9.94748 5.05935 10.2605ZM15.1644 15.7605C14.8514 15.4475 14.6944 15.0695 14.6944 14.6255C14.6944 14.1815 14.8514 13.8055 15.1644 13.4915C15.4774 13.1785 15.8554 13.0215 16.2984 13.0215C16.7414 13.0215 17.1204 13.1775 17.4334 13.4915C17.7464 13.8045 17.9024 14.1815 17.9024 14.6255C17.9024 15.0695 17.7464 15.4475 17.4334 15.7605C17.1204 16.0735 16.7414 16.2305 16.2984 16.2305C15.8554 16.2295 15.4774 16.0735 15.1644 15.7605Z"
    fill="currentColor" />
</svg>