<svg width="20" height="19" viewBox="0 0 20 19" fill="none" xmlns="http://www.w3.org/2000/svg">
  <path fill-rule="evenodd" clip-rule="evenodd"
    d="M7.5 10.5C7.5 12.433 5.933 14 4 14C2.067 14 0.5 12.433 0.5 10.5C0.5 8.567 2.067 7 4 7C5.933 7 7.5 8.567 7.5 10.5ZM4 12C4.82843 12 5.5 11.3284 5.5 10.5C5.5 9.67157 4.82843 9 4 9C3.17157 9 2.5 9.67157 2.5 10.5C2.5 11.3284 3.17157 12 4 12Z"
    fill="currentColor" />
  <path fill-rule="evenodd" clip-rule="evenodd"
    d="M18 3.5C18 5.433 16.433 7 14.5 7C12.567 7 11 5.433 11 3.5C11 1.567 12.567 0 14.5 0C16.433 0 18 1.567 18 3.5ZM14.5 5C15.3284 5 16 4.32843 16 3.5C16 2.67157 15.3284 2 14.5 2C13.6716 2 13 2.67157 13 3.5C13 4.32843 13.6716 5 14.5 5Z"
    fill="currentColor" />
  <path fill-rule="evenodd" clip-rule="evenodd"
    d="M20 15.5C20 17.433 18.433 19 16.5 19C14.567 19 13 17.433 13 15.5C13 13.567 14.567 12 16.5 12C18.433 12 20 13.567 20 15.5ZM16.5 17C17.3284 17 18 16.3284 18 15.5C18 14.6716 17.3284 14 16.5 14C15.6716 14 15 14.6716 15 15.5C15 16.3284 15.6716 17 16.5 17Z"
    fill="currentColor" />
</svg>