<svg width="34" height="34" viewBox="0 0 34 34" fill="none" xmlns="http://www.w3.org/2000/svg">
  <rect x="1" y="1" width="32" height="32" rx="16" stroke="currentColor" stroke-opacity="0.4" stroke-width="2" />
  <rect x="2" y="2" width="30" height="30" rx="15" fill="currentColor" />
  <path
    d="M17 32C15.0302 32 13.0796 31.612 11.2597 30.8582C9.43987 30.1044 7.78628 28.9995 6.3934 27.6066C5.00052 26.2137 3.89563 24.5601 3.14181 22.7403C2.38799 20.9204 2 18.9698 2 17C2 15.0302 2.38799 13.0796 3.14181 11.2597C3.89563 9.43987 5.00052 7.78628 6.3934 6.3934C7.78628 5.00052 9.43987 3.89563 11.2597 3.14181C13.0796 2.38799 15.0302 2 17 2C20.9782 2 24.7936 3.58035 27.6066 6.3934C30.4196 9.20644 32 13.0218 32 17C32 20.9782 30.4196 24.7936 27.6066 27.6066C24.7936 30.4196 20.9782 32 17 32ZM17 28.6667C18.5321 28.6667 20.0492 28.3649 21.4646 27.7786C22.8801 27.1923 24.1662 26.3329 25.2496 25.2496C26.3329 24.1662 27.1923 22.8801 27.7786 21.4646C28.3649 20.0492 28.6667 18.5321 28.6667 17C28.6667 15.4679 28.3649 13.9508 27.7786 12.5354C27.1923 11.1199 26.3329 9.83377 25.2496 8.75042C24.1662 7.66707 22.8801 6.80771 21.4646 6.22141C20.0492 5.6351 18.5321 5.33333 17 5.33333C13.9058 5.33333 10.9383 6.5625 8.75042 8.75042C6.5625 10.9383 5.33333 13.9058 5.33333 17C5.33333 20.0942 6.5625 23.0617 8.75042 25.2496C10.9383 27.4375 13.9058 28.6667 17 28.6667Z"
    fill="white" stroke="white" />
  <rect x="15.333" y="8.55078" width="3.33333" height="11.6667" rx="1.66667" fill="white" />
  <path
    d="M13.2796 23.1039C12.4824 23.5641 11.4631 23.291 11.0029 22.4938C10.5426 21.6967 10.8158 20.6774 11.6129 20.2171L16.1056 17.1074C16.9027 16.6471 17.922 16.9202 18.3823 17.7174C18.8425 18.5146 18.5694 19.5339 17.7722 19.9941L13.2796 23.1039Z"
    fill="white" stroke="white" />
</svg>