<svg width="19" height="20" viewBox="0 0 19 20" fill="none" xmlns="http://www.w3.org/2000/svg">
  <path
    d="M1.93352 18.7391C2.59852 19.4031 3.41152 19.7351 4.37452 19.7351C5.33652 19.7351 6.14952 19.4031 6.81352 18.7391C7.47952 18.0741 7.81152 17.2601 7.81152 16.2981C7.81152 15.5041 7.57452 14.8051 7.10052 14.2021C6.62652 13.5981 6.02352 13.1891 5.28952 12.9751L5.28952 12.7501L5.28952 11.0271L14.4575 11.0271L14.4575 12.7501L14.4575 12.9751C13.7245 13.1891 13.1205 13.5981 12.6465 14.2021C12.1725 14.8051 11.9365 15.5041 11.9365 16.2981C11.9365 17.2611 12.2685 18.0741 12.9325 18.7391C13.5985 19.4031 14.4115 19.7351 15.3745 19.7351C16.3365 19.7351 17.1495 19.4031 17.8135 18.7391C18.4795 18.0741 18.8115 17.2611 18.8115 16.2981C18.8115 15.5041 18.5745 14.8051 18.1005 14.2021C17.6275 13.5981 17.0235 13.1891 16.2905 12.9751L16.2905 12.7501L16.2905 9.19311L10.7905 9.19311L10.7905 7.24611C11.5245 7.03211 12.1275 6.62311 12.6015 6.02011C13.0755 5.41611 13.3125 4.71711 13.3125 3.92211C13.3125 2.96011 12.9795 2.14611 12.3145 1.48211C11.6495 0.818108 10.8375 0.485108 9.87452 0.485108C8.91152 0.485108 8.09852 0.818108 7.43352 1.48211C6.76952 2.14611 6.43752 2.96111 6.43752 3.92211C6.43752 4.71711 6.67352 5.41511 7.14752 6.02011C7.62152 6.62311 8.22452 7.03211 8.95852 7.24611L8.95852 9.19311L3.45852 9.19311L3.45852 12.7501L3.45852 12.9751C2.72552 13.1891 2.12152 13.5981 1.64752 14.2021C1.17352 14.8051 0.937523 15.5041 0.937523 16.2981C0.936523 17.2611 1.26952 18.0741 1.93352 18.7391ZM16.5085 15.1641C16.8215 15.4771 16.9785 15.8551 16.9785 16.2981C16.9785 16.7411 16.8225 17.1201 16.5085 17.4331C16.1945 17.7461 15.8175 17.9021 15.3745 17.9021C14.9315 17.9021 14.5525 17.7461 14.2395 17.4331C13.9265 17.1201 13.7695 16.7411 13.7695 16.2981C13.7695 15.8551 13.9255 15.4771 14.2395 15.1641C14.5525 14.8511 14.9315 14.6941 15.3745 14.6941C15.8175 14.6941 16.1945 14.8511 16.5085 15.1641ZM8.73952 5.05911C8.42652 4.74511 8.26952 4.36711 8.26952 3.92311C8.26952 3.48111 8.42552 3.10211 8.73952 2.78811C9.05252 2.47511 9.43052 2.31811 9.87452 2.31811C10.3185 2.31811 10.6945 2.47511 11.0095 2.78811C11.3225 3.10111 11.4785 3.48011 11.4785 3.92311C11.4785 4.36611 11.3225 4.74411 11.0095 5.05911C10.6945 5.37111 10.3175 5.52711 9.87452 5.52711C9.43152 5.52711 9.05252 5.37111 8.73952 5.05911ZM3.23952 15.1641C3.55252 14.8511 3.93052 14.6941 4.37452 14.6941C4.81852 14.6941 5.19452 14.8511 5.50852 15.1641C5.82152 15.4771 5.97852 15.8551 5.97852 16.2981C5.97852 16.7411 5.82252 17.1201 5.50852 17.4331C5.19552 17.7461 4.81852 17.9021 4.37452 17.9021C3.93052 17.9021 3.55252 17.7461 3.23952 17.4331C2.92652 17.1201 2.76952 16.7411 2.76952 16.2981C2.77052 15.8551 2.92652 15.4771 3.23952 15.1641Z"
    fill="currentColor" />
</svg>