<svg
  width="41"
  height="41"
  viewBox="0 0 41 41"
  fill="none"
  xmlns="http://www.w3.org/2000/svg"
>
  <path
    d="M16.5 2.3094C18.9752 0.880339 22.0248 0.880339 24.5 2.3094L34.2535 7.9406C36.7287 9.36966 38.2535 12.0107 38.2535 14.8688V26.1312C38.2535 28.9893 36.7287 31.6303 34.2535 33.0594L24.5 38.6906C22.0248 40.1197 18.9752 40.1197 16.5 38.6906L6.74648 33.0594C4.27127 31.6303 2.74648 28.9893 2.74648 26.1312V14.8688C2.74648 12.0107 4.27127 9.36966 6.74648 7.9406L16.5 2.3094Z"
    fill="url(#paint0_linear_31_162)"
  />
  <path
    d="M10.168 21.3345C10.168 19.5787 10.574 18.1837 11.386 17.1496C12.1979 16.1086 13.2737 15.5881 14.6131 15.5881C15.9872 15.5881 17.0595 16.0739 17.8298 17.0455L17.9235 15.7963H19.6829V26.7895C19.6829 28.2469 19.2491 29.3955 18.3816 30.2352C17.521 31.075 16.362 31.4948 14.9046 31.4948C14.0926 31.4948 13.298 31.3213 12.5207 30.9743C11.7434 30.6273 11.15 30.1519 10.7405 29.5481L11.7399 28.3926C12.5658 29.4128 13.5756 29.9229 14.7693 29.9229C15.7062 29.9229 16.4349 29.6592 16.9554 29.1317C17.4828 28.6043 17.7466 27.8617 17.7466 26.904V25.9358C16.9762 26.8242 15.9248 27.2683 14.5923 27.2683C13.2737 27.2683 12.2049 26.7374 11.386 25.6756C10.574 24.6137 10.168 23.1667 10.168 21.3345ZM12.1043 21.5531C12.1043 22.8232 12.3645 23.8226 12.885 24.5513C13.4055 25.273 14.1342 25.6339 15.0712 25.6339C16.2857 25.6339 17.1775 25.0822 17.7466 23.9787V18.8361C17.1567 17.7604 16.2718 17.2225 15.092 17.2225C14.1551 17.2225 13.4229 17.5869 12.8954 18.3156C12.368 19.0443 12.1043 20.1235 12.1043 21.5531Z"
    fill="white"
  />
  <path
    d="M23.545 27.0601V17.285H21.7649V15.7963H23.545V14.6408C23.545 13.4332 23.8677 12.4998 24.5132 11.8405C25.1586 11.1812 26.0712 10.8515 27.251 10.8515C27.6952 10.8515 28.1359 10.9105 28.5731 11.0285L28.469 12.59C28.1428 12.5275 27.7958 12.4963 27.428 12.4963C26.8034 12.4963 26.3211 12.6802 25.981 13.048C25.6409 13.4089 25.4709 13.9294 25.4709 14.6096V15.7963H27.8756V17.285H25.4709V27.0601H23.545Z"
    fill="white"
  />
  <defs>
    <linearGradient
      id="paint0_linear_31_162"
      x1="9.225"
      y1="4.92"
      x2="34.235"
      y2="36.49"
      gradientUnits="userSpaceOnUse"
    >
      <stop stopColor="#46B5FE" />
      <stop offset="1" stopColor="#75F2FF" />
    </linearGradient>
  </defs>
</svg>