<svg width="20" height="20" viewBox="0 0 20 20" fill="none" xmlns="http://www.w3.org/2000/svg">
<mask id="mask0_1_5320" style="mask-type:alpha" maskUnits="userSpaceOnUse" x="0" y="0" width="20" height="20">
<rect width="20" height="20" fill="#D9D9D9"/>
</mask>
<g mask="url(#mask0_1_5320)">
<path d="M17.5 10.0001L13.875 15.1251C13.7222 15.3473 13.5243 15.5209 13.2812 15.6459C13.0382 15.7709 12.7778 15.8334 12.5 15.8334H4.16667C3.70833 15.8334 3.31597 15.6702 2.98958 15.3438C2.66319 15.0174 2.5 14.6251 2.5 14.1667V5.83341C2.5 5.37508 2.66319 4.98272 2.98958 4.65633C3.31597 4.32994 3.70833 4.16675 4.16667 4.16675H12.5C12.7778 4.16675 13.0382 4.22925 13.2812 4.35425C13.5243 4.47925 13.7222 4.65286 13.875 4.87508L17.5 10.0001ZM15.4583 10.0001L12.5 5.83341H4.16667V14.1667H12.5L15.4583 10.0001Z" fill="white"/>
</g>
</svg>
