<svg xmlns="http://www.w3.org/2000/svg" width="16" height="8" viewBox="0 0 16 8" fill="none">
<path d="M11.75 7.75C10.85 7.75 10.0562 7.46563 9.36875 6.89688C8.68125 6.32812 8.25 5.6125 8.075 4.75H4.1C3.95 5.0875 3.71875 5.35938 3.40625 5.56563C3.09375 5.77187 2.75 5.875 2.375 5.875C1.85 5.875 1.40625 5.69375 1.04375 5.33125C0.68125 4.96875 0.5 4.525 0.5 4C0.5 3.475 0.68125 3.03125 1.04375 2.66875C1.40625 2.30625 1.85 2.125 2.375 2.125C2.75 2.125 3.09375 2.22813 3.40625 2.43438C3.71875 2.64062 3.95 2.9125 4.1 3.25H8.075C8.25 2.3875 8.68125 1.67188 9.36875 1.10313C10.0562 0.534375 10.85 0.25 11.75 0.25C12.7875 0.25 13.6719 0.615625 14.4031 1.34687C15.1344 2.07812 15.5 2.9625 15.5 4C15.5 5.0375 15.1344 5.92188 14.4031 6.65313C13.6719 7.38438 12.7875 7.75 11.75 7.75ZM11.75 6.25C12.375 6.25 12.9062 6.03125 13.3438 5.59375C13.7812 5.15625 14 4.625 14 4C14 3.375 13.7812 2.84375 13.3438 2.40625C12.9062 1.96875 12.375 1.75 11.75 1.75C11.125 1.75 10.5938 1.96875 10.1562 2.40625C9.71875 2.84375 9.5 3.375 9.5 4C9.5 4.625 9.71875 5.15625 10.1562 5.59375C10.5938 6.03125 11.125 6.25 11.75 6.25Z" fill="currentColor"/>
</svg>