<svg width="28" height="27" viewBox="0 0 28 27" fill="none" xmlns="http://www.w3.org/2000/svg">
<g opacity="0.6">
<rect width="26.5591" height="26.5591" rx="13.2796" transform="matrix(1 0 0 -1 0.623535 26.7689)" fill="white"/>
<path d="M14.3115 9.44071C14.3115 9.0131 14.8056 8.7748 15.1402 9.041L20.551 13.345C20.808 13.5495 20.808 13.9399 20.551 14.1444L15.1402 18.4484C14.8056 18.7146 14.3115 18.4763 14.3115 18.0487V9.44071Z" fill="#130B19"/>
<path d="M9.81689 9.44071C9.81689 9.0131 10.311 8.7748 10.6456 9.041L16.0563 13.345C16.3134 13.5495 16.3134 13.9399 16.0563 14.1444L10.6456 18.4484C10.311 18.7146 9.81689 18.4763 9.81689 18.0487V9.44071Z" fill="#130B19"/>
</g>
</svg>
