<svg width="27" height="27" viewBox="0 0 27 27" fill="none" xmlns="http://www.w3.org/2000/svg">
<g opacity="0.6">
<rect x="26.5591" y="26.7689" width="26.5591" height="26.5591" rx="13.2796" transform="rotate(180 26.5591 26.7689)" fill="white"/>
<path d="M12.8711 9.44071C12.8711 9.0131 12.377 8.7748 12.0424 9.041L6.63166 13.345C6.3746 13.5495 6.3746 13.9399 6.63166 14.1444L12.0424 18.4484C12.377 18.7146 12.8711 18.4763 12.8711 18.0487V9.44071Z" fill="#130B19"/>
<path d="M17.3657 9.44071C17.3657 9.0131 16.8717 8.7748 16.537 9.041L11.1263 13.345C10.8692 13.5495 10.8692 13.9399 11.1263 14.1444L16.537 18.4484C16.8717 18.7146 17.3657 18.4763 17.3657 18.0487V9.44071Z" fill="#130B19"/>
</g>
</svg>
