<svg width="16" height="14" viewBox="0 0 16 14" fill="none" xmlns="http://www.w3.org/2000/svg">
<path d="M5.5 12.8333V11.1666H15.5V12.8333H5.5ZM5.5 7.83325V6.16658H15.5V7.83325H5.5ZM5.5 2.83325V1.16659H15.5V2.83325H5.5ZM2.16667 13.6666C1.70833 13.6666 1.31597 13.5034 0.989583 13.177C0.663194 12.8506 0.5 12.4583 0.5 11.9999C0.5 11.5416 0.663194 11.1492 0.989583 10.8228C1.31597 10.4964 1.70833 10.3333 2.16667 10.3333C2.625 10.3333 3.01736 10.4964 3.34375 10.8228C3.67014 11.1492 3.83333 11.5416 3.83333 11.9999C3.83333 12.4583 3.67014 12.8506 3.34375 13.177C3.01736 13.5034 2.625 13.6666 2.16667 13.6666ZM2.16667 8.66658C1.70833 8.66658 1.31597 8.50339 0.989583 8.177C0.663194 7.85061 0.5 7.45825 0.5 6.99992C0.5 6.54158 0.663194 6.14922 0.989583 5.82284C1.31597 5.49645 1.70833 5.33325 2.16667 5.33325C2.625 5.33325 3.01736 5.49645 3.34375 5.82284C3.67014 6.14922 3.83333 6.54158 3.83333 6.99992C3.83333 7.45825 3.67014 7.85061 3.34375 8.177C3.01736 8.50339 2.625 8.66658 2.16667 8.66658ZM2.16667 3.66659C1.70833 3.66659 1.31597 3.50339 0.989583 3.177C0.663194 2.85061 0.5 2.45825 0.5 1.99992C0.5 1.54159 0.663194 1.14922 0.989583 0.822835C1.31597 0.496446 1.70833 0.333252 2.16667 0.333252C2.625 0.333252 3.01736 0.496446 3.34375 0.822835C3.67014 1.14922 3.83333 1.54159 3.83333 1.99992C3.83333 2.45825 3.67014 2.85061 3.34375 3.177C3.01736 3.50339 2.625 3.66659 2.16667 3.66659Z" fill="white"/>
</svg>
