<svg width="16" height="16" viewBox="0 0 16 16" fill="none" xmlns="http://www.w3.org/2000/svg">
<path d="M4.66667 12.1667C4.90278 12.1667 5.10069 12.0868 5.26042 11.9271C5.42014 11.7674 5.5 11.5694 5.5 11.3333C5.5 11.0972 5.42014 10.8993 5.26042 10.7396C5.10069 10.5799 4.90278 10.5 4.66667 10.5C4.43056 10.5 4.23264 10.5799 4.07292 10.7396C3.91319 10.8993 3.83333 11.0972 3.83333 11.3333C3.83333 11.5694 3.91319 11.7674 4.07292 11.9271C4.23264 12.0868 4.43056 12.1667 4.66667 12.1667ZM4.66667 8.83333C4.90278 8.83333 5.10069 8.75347 5.26042 8.59375C5.42014 8.43403 5.5 8.23611 5.5 8C5.5 7.76389 5.42014 7.56597 5.26042 7.40625C5.10069 7.24653 4.90278 7.16667 4.66667 7.16667C4.43056 7.16667 4.23264 7.24653 4.07292 7.40625C3.91319 7.56597 3.83333 7.76389 3.83333 8C3.83333 8.23611 3.91319 8.43403 4.07292 8.59375C4.23264 8.75347 4.43056 8.83333 4.66667 8.83333ZM4.66667 5.5C4.90278 5.5 5.10069 5.42014 5.26042 5.26042C5.42014 5.10069 5.5 4.90278 5.5 4.66667C5.5 4.43056 5.42014 4.23264 5.26042 4.07292C5.10069 3.91319 4.90278 3.83333 4.66667 3.83333C4.43056 3.83333 4.23264 3.91319 4.07292 4.07292C3.91319 4.23264 3.83333 4.43056 3.83333 4.66667C3.83333 4.90278 3.91319 5.10069 4.07292 5.26042C4.23264 5.42014 4.43056 5.5 4.66667 5.5ZM7.16667 12.1667H12.1667V10.5H7.16667V12.1667ZM7.16667 8.83333H12.1667V7.16667H7.16667V8.83333ZM7.16667 5.5H12.1667V3.83333H7.16667V5.5ZM2.16667 15.5C1.70833 15.5 1.31597 15.3368 0.989583 15.0104C0.663194 14.684 0.5 14.2917 0.5 13.8333V2.16667C0.5 1.70833 0.663194 1.31597 0.989583 0.989583C1.31597 0.663194 1.70833 0.5 2.16667 0.5H13.8333C14.2917 0.5 14.684 0.663194 15.0104 0.989583C15.3368 1.31597 15.5 1.70833 15.5 2.16667V13.8333C15.5 14.2917 15.3368 14.684 15.0104 15.0104C14.684 15.3368 14.2917 15.5 13.8333 15.5H2.16667ZM2.16667 13.8333H13.8333V2.16667H2.16667V13.8333Z" fill="white"/>
</svg>
