<svg xmlns="http://www.w3.org/2000/svg" width="12" height="12" viewBox="0 0 12 12" fill="none">
<path d="M4.425 11.25C3.2125 11.25 2.17188 10.8562 1.30313 10.0688C0.434375 9.28125 0 8.3 0 7.125C0 5.95 0.434375 4.96875 1.30313 4.18125C2.17188 3.39375 3.2125 3 4.425 3H9.15L7.2 1.05L8.25 0L12 3.75L8.25 7.5L7.2 6.45L9.15 4.5H4.425C3.6375 4.5 2.95313 4.75 2.37188 5.25C1.79063 5.75 1.5 6.375 1.5 7.125C1.5 7.875 1.79063 8.5 2.37188 9C2.95313 9.5 3.6375 9.75 4.425 9.75H9.75V11.25H4.425Z" fill="currentColor"/>
</svg>