<svg width="20" height="19" viewBox="0 0 20 19" fill="none" xmlns="http://www.w3.org/2000/svg">
<path d="M2.16667 15.3335C1.70833 15.3335 1.31597 15.1703 0.989583 14.8439C0.663194 14.5175 0.5 14.1251 0.5 13.6668V2.00012C0.5 1.54179 0.663194 1.14943 0.989583 0.823039C1.31597 0.49665 1.70833 0.333455 2.16667 0.333455H3H4.66667H11.3333L13 0.333374L13.8333 0.333455C14.2917 0.333455 14.684 0.49665 15.0104 0.823039C15.3368 1.14943 15.5 1.54179 15.5 2.00012V8L13.8333 7V5.33346H2.16667V13.6668H6.35417L8 15.3335H2.16667ZM2.16667 3.66679H13.8333V2.00012H2.16667V3.66679Z" fill="white"/>
<mask id="mask0_101_3" style="mask-type:alpha" maskUnits="userSpaceOnUse" x="8" y="7" width="12" height="12">
<rect x="8" y="7" width="12" height="12" fill="#D9D9D9"/>
</mask>
<g mask="url(#mask0_101_3)">
<path d="M15.0001 16L14.3001 15.275L16.0751 13.5H10.0001V12.5H16.0751L14.3001 10.725L15.0001 10L18.0001 13L15.0001 16Z" fill="white"/>
</g>
</svg>
