<svg width="18" height="18" viewBox="0 0 18 18" fill="none" xmlns="http://www.w3.org/2000/svg">
<path d="M2.16667 15.3334C1.70833 15.3334 1.31597 15.1702 0.989583 14.8438C0.663194 14.5174 0.5 14.1251 0.5 13.6667V2.00006C0.5 1.54173 0.663194 1.14937 0.989583 0.822978C1.31597 0.496589 1.70833 0.333394 2.16667 0.333394H3H4.66667H11.3333L13 0.333313L13.8333 0.333394C14.2917 0.333394 14.684 0.496589 15.0104 0.822978C15.3368 1.14937 15.5 1.54173 15.5 2.00006V7.99994L13.8333 6.99994V5.33339H2.16667V13.6667H6.35417L8 15.3334H2.16667ZM2.16667 3.66673H13.8333V2.00006H2.16667V3.66673Z" fill="white"/>
<path d="M12.0937 14.9062L13.5 18L14.9063 14.9062L18 13.5L14.9063 12.0938L13.5 9L12.0937 12.0938L9 13.5L12.0937 14.9062Z" fill="white"/>
</svg>
