<svg xmlns="http://www.w3.org/2000/svg" width="21" height="21" viewBox="0 0 21 21" fill="none">
<g opacity="0.6">
<path fill-rule="evenodd" clip-rule="evenodd" d="M20.7204 0.279606C21.0932 0.652379 21.0932 1.25676 20.7204 1.62954L10.2204 12.1295C9.84764 12.5023 9.24325 12.5023 8.87048 12.1295C8.49771 11.7567 8.49771 11.1524 8.87048 10.7796L19.3705 0.279606C19.7432 -0.0931666 20.3476 -0.0931666 20.7204 0.279606Z" fill="black"/>
<path fill-rule="evenodd" clip-rule="evenodd" d="M20.7204 0.279606C20.9797 0.538896 21.0675 0.923799 20.9464 1.2699L14.2646 20.3608C14.1353 20.7302 13.7936 20.9832 13.4025 20.9992C13.0115 21.0152 12.6503 20.7908 12.4913 20.4331L8.82228 12.1777L0.566872 8.50865C0.209223 8.3497 -0.0151558 7.98853 0.000798271 7.59747C0.0167523 7.20641 0.269806 6.86472 0.639215 6.73542L19.7301 0.0536163C20.0762 -0.0675205 20.4611 0.0203158 20.7204 0.279606ZM3.54239 7.74196L9.93312 10.5823C10.1491 10.6783 10.3217 10.8509 10.4177 11.0669L13.258 17.4576L18.4895 2.51045L3.54239 7.74196Z" fill="currentColor"/>
</g>
</svg>