<svg xmlns="http://www.w3.org/2000/svg" width="16" height="16" viewBox="0 0 16 16" fill="none">
<path d="M5 12.4625C5.125 12.475 5.24688 12.4844 5.36563 12.4906C5.48438 12.4969 5.6125 12.5 5.75 12.5C5.8875 12.5 6.01562 12.4969 6.13438 12.4906C6.25313 12.4844 6.375 12.475 6.5 12.4625V14H14V6.5H12.4625C12.475 6.375 12.4844 6.25313 12.4906 6.13438C12.4969 6.01562 12.5 5.8875 12.5 5.75C12.5 5.6125 12.4969 5.48438 12.4906 5.36563C12.4844 5.24688 12.475 5.125 12.4625 5H14C14.4125 5 14.7656 5.14687 15.0594 5.44063C15.3531 5.73438 15.5 6.0875 15.5 6.5V14C15.5 14.4125 15.3531 14.7656 15.0594 15.0594C14.7656 15.3531 14.4125 15.5 14 15.5H6.5C6.0875 15.5 5.73438 15.3531 5.44063 15.0594C5.14687 14.7656 5 14.4125 5 14V12.4625ZM5.75 11C4.2875 11 3.04688 10.4906 2.02813 9.47188C1.00938 8.45313 0.5 7.2125 0.5 5.75C0.5 4.2875 1.00938 3.04688 2.02813 2.02813C3.04688 1.00938 4.2875 0.5 5.75 0.5C7.2125 0.5 8.45313 1.00938 9.47188 2.02813C10.4906 3.04688 11 4.2875 11 5.75C11 7.2125 10.4906 8.45313 9.47188 9.47188C8.45313 10.4906 7.2125 11 5.75 11ZM5.75 9.5C6.7875 9.5 7.67188 9.13438 8.40313 8.40313C9.13438 7.67188 9.5 6.7875 9.5 5.75C9.5 4.7125 9.13438 3.82812 8.40313 3.09688C7.67188 2.36563 6.7875 2 5.75 2C4.7125 2 3.82812 2.36563 3.09688 3.09688C2.36563 3.82812 2 4.7125 2 5.75C2 6.7875 2.36563 7.67188 3.09688 8.40313C3.82812 9.13438 4.7125 9.5 5.75 9.5Z" fill="currentColor"/>
</svg>