<svg width="25" height="27" viewBox="0 0 25 27" fill="none" xmlns="http://www.w3.org/2000/svg">
<mask id="mask0_101_9" style="mask-type:alpha" maskUnits="userSpaceOnUse" x="2" y="0" width="20" height="20">
<rect x="2" width="20" height="20" fill="#D9D9D9"/>
</mask>
<g mask="url(#mask0_101_9)">
<g filter="url(#filter0_d_101_9)">
<path d="M11.1667 1.89585C11.4306 1.74308 11.7083 1.66669 12 1.66669C12.2917 1.66669 12.5694 1.74308 12.8333 1.89585L18.6667 5.25002C18.9306 5.4028 19.1354 5.60419 19.2813 5.85419C19.4271 6.10419 19.5 6.38197 19.5 6.68752V10.2292C19.25 10.0486 18.9861 9.89238 18.7083 9.76044C18.4306 9.62849 18.1389 9.51391 17.8333 9.41669V7.58335L14.8333 9.31252C14.0556 9.50697 13.3507 9.83683 12.7188 10.3021C12.0868 10.7674 11.5694 11.3334 11.1667 12V10.4792L6.16667 7.58335V13.2917L10.375 15.7292C10.4306 16.1736 10.5347 16.6007 10.6875 17.0104C10.8403 17.4202 11.0347 17.8056 11.2708 18.1667C11.2431 18.1528 11.2257 18.1424 11.2188 18.1354C11.2118 18.1285 11.1944 18.1181 11.1667 18.1042L5.33333 14.75C5.06944 14.5972 4.86458 14.3959 4.71875 14.1459C4.57292 13.8959 4.5 13.6181 4.5 13.3125V6.68752C4.5 6.38197 4.57292 6.10419 4.71875 5.85419C4.86458 5.60419 5.06944 5.4028 5.33333 5.25002L11.1667 1.89585ZM12 3.33335L7.0625 6.18752L12 9.04169L16.9375 6.18752L12 3.33335Z" fill="white"/>
</g>
</g>
<g filter="url(#filter1_d_101_9)">
<path d="M21 15.5L15 19V12L21 15.5Z" fill="white"/>
</g>
<defs>
<filter id="filter0_d_101_9" x="0.5" y="1.66669" width="23" height="24.5" filterUnits="userSpaceOnUse" color-interpolation-filters="sRGB">
<feFlood flood-opacity="0" result="BackgroundImageFix"/>
<feColorMatrix in="SourceAlpha" type="matrix" values="0 0 0 0 0 0 0 0 0 0 0 0 0 0 0 0 0 0 127 0" result="hardAlpha"/>
<feOffset dy="4"/>
<feGaussianBlur stdDeviation="2"/>
<feComposite in2="hardAlpha" operator="out"/>
<feColorMatrix type="matrix" values="0 0 0 0 0 0 0 0 0 0 0 0 0 0 0 0 0 0 0.25 0"/>
<feBlend mode="normal" in2="BackgroundImageFix" result="effect1_dropShadow_101_9"/>
<feBlend mode="normal" in="SourceGraphic" in2="effect1_dropShadow_101_9" result="shape"/>
</filter>
<filter id="filter1_d_101_9" x="11" y="12" width="14" height="15" filterUnits="userSpaceOnUse" color-interpolation-filters="sRGB">
<feFlood flood-opacity="0" result="BackgroundImageFix"/>
<feColorMatrix in="SourceAlpha" type="matrix" values="0 0 0 0 0 0 0 0 0 0 0 0 0 0 0 0 0 0 127 0" result="hardAlpha"/>
<feOffset dy="4"/>
<feGaussianBlur stdDeviation="2"/>
<feComposite in2="hardAlpha" operator="out"/>
<feColorMatrix type="matrix" values="0 0 0 0 0 0 0 0 0 0 0 0 0 0 0 0 0 0 0.25 0"/>
<feBlend mode="normal" in2="BackgroundImageFix" result="effect1_dropShadow_101_9"/>
<feBlend mode="normal" in="SourceGraphic" in2="effect1_dropShadow_101_9" result="shape"/>
</filter>
</defs>
</svg>
