<svg width="20" height="20" viewBox="0 0 20 20" fill="none" xmlns="http://www.w3.org/2000/svg">
<mask id="mask0_1_183" style="mask-type:alpha" maskUnits="userSpaceOnUse" x="0" y="0" width="20" height="20">
<rect width="20" height="20" fill="#D9D9D9"/>
</mask>
<g mask="url(#mask0_1_183)">
<path d="M9.16667 1.89585C9.43056 1.74308 9.70833 1.66669 10 1.66669C10.2917 1.66669 10.5694 1.74308 10.8333 1.89585L16.6667 5.25002C16.9306 5.4028 17.1354 5.60419 17.2813 5.85419C17.4271 6.10419 17.5 6.38197 17.5 6.68752V10.2292C17.25 10.0486 16.9861 9.89238 16.7083 9.76044C16.4306 9.62849 16.1389 9.51391 15.8333 9.41669V7.58335L12.8333 9.31252C12.0556 9.50697 11.3507 9.83683 10.7188 10.3021C10.0868 10.7674 9.56944 11.3334 9.16667 12V10.4792L4.16667 7.58335V13.2917L8.375 15.7292C8.43056 16.1736 8.53472 16.6007 8.6875 17.0104C8.84028 17.4202 9.03472 17.8056 9.27083 18.1667C9.24306 18.1528 9.22569 18.1424 9.21875 18.1354C9.21181 18.1285 9.19444 18.1181 9.16667 18.1042L3.33333 14.75C3.06944 14.5972 2.86458 14.3959 2.71875 14.1459C2.57292 13.8959 2.5 13.6181 2.5 13.3125V6.68752C2.5 6.38197 2.57292 6.10419 2.71875 5.85419C2.86458 5.60419 3.06944 5.4028 3.33333 5.25002L9.16667 1.89585ZM10 3.33335L5.0625 6.18752L10 9.04169L14.9375 6.18752L10 3.33335Z" fill="white"/>
<path d="M16.103 14.5V12.334V12H14.437V12.334V14.5H12V14.834V16.166H14.437V18.666H16.103V16.166H18.603V14.5H16.103Z" fill="white"/>
</g>
</svg>
