<svg width="20" height="20" viewBox="0 0 20 20" fill="none" xmlns="http://www.w3.org/2000/svg">
<mask id="mask0_1_72" style="mask-type:alpha" maskUnits="userSpaceOnUse" x="0" y="0" width="20" height="20">
<rect width="20" height="20" fill="#D9D9D9"/>
</mask>
<g mask="url(#mask0_1_72)">
<path d="M8.33335 11.8125L9.16669 10L10.9792 9.16667L9.16669 8.33333L8.33335 6.52083L7.50002 8.33333L5.68752 9.16667L7.50002 10L8.33335 11.8125ZM8.33335 15.8333L6.25002 11.25L1.66669 9.16667L6.25002 7.08333L8.33335 2.5L10.4167 7.08333L15 9.16667L10.4167 11.25L8.33335 15.8333Z" fill="white"/>
<mask id="mask1_1_72" style="mask-type:alpha" maskUnits="userSpaceOnUse" x="10" y="9" width="12" height="12">
<rect x="10" y="9" width="12" height="12" fill="#D9D9D9"/>
</mask>
<g mask="url(#mask1_1_72)">
<path d="M17.0001 18L16.3001 17.275L18.0751 15.5H12.0001V14.5H18.0751L16.3001 12.725L17.0001 12L20.0001 15L17.0001 18Z" fill="white"/>
</g>
</g>
</svg>
