<svg width="20" height="20" viewBox="0 0 20 20" fill="none" xmlns="http://www.w3.org/2000/svg">
<path d="M6.604 13.834V11.334H9V9.666H6.604V7.166H9.396V9H11.063V7.166H13.834V9H15.5V0.5H0.5V15.5H9V13.834H6.604ZM2.167 2.167H13.834V5.5H2.167V2.167ZM4.938 13.834H2.167V11.334H4.938V13.834ZM4.938 9.666H2.167V7.166H4.938V9.666Z" fill="white"/>
<path d="M11.063 13.5H11V15.166H11.063V13.834V13.5Z" fill="white"/>
<path d="M15.166 13.5V11.334V11H13.5V11.334V13.5H11.063V13.834V15.166H13.5V17.666H15.166V15.166H17.666V13.5H15.166Z" fill="white"/>
</svg>
