<svg width="16" height="10" viewBox="0 0 16 10" fill="none" xmlns="http://www.w3.org/2000/svg">
<path d="M2.16667 10C1.70833 10 1.31597 9.83681 0.989583 9.51042C0.663194 9.18403 0.5 8.79167 0.5 8.33333V1.66667C0.5 1.20833 0.663194 0.815972 0.989583 0.489583C1.31597 0.163194 1.70833 0 2.16667 0H13.8333C14.2917 0 14.684 0.163194 15.0104 0.489583C15.3368 0.815972 15.5 1.20833 15.5 1.66667V8.33333C15.5 8.79167 15.3368 9.18403 15.0104 9.51042C14.684 9.83681 14.2917 10 13.8333 10H2.16667ZM2.16667 8.33333H13.8333V1.66667H2.16667V8.33333Z" fill="white"/>
</svg>
