<svg width="18" height="18" viewBox="0 0 18 18" fill="none" xmlns="http://www.w3.org/2000/svg">
<path d="M2.33366 17.3333C1.87533 17.3333 1.48296 17.1701 1.15658 16.8437C0.830187 16.5173 0.666992 16.125 0.666992 15.6666V6.49996C0.666992 6.04163 0.830187 5.64926 1.15658 5.32288C1.48296 4.99649 1.87533 4.83329 2.33366 4.83329H6.50033V2.33329C6.50033 1.87496 6.66352 1.4826 6.98991 1.15621C7.3163 0.82982 7.70866 0.666626 8.16699 0.666626H9.83366C10.292 0.666626 10.6844 0.82982 11.0107 1.15621C11.3371 1.4826 11.5003 1.87496 11.5003 2.33329V4.83329H15.667C16.1253 4.83329 16.5177 4.99649 16.8441 5.32288C17.1705 5.64926 17.3337 6.04163 17.3337 6.49996V15.6666C17.3337 16.125 17.1705 16.5173 16.8441 16.8437C16.5177 17.1701 16.1253 17.3333 15.667 17.3333H2.33366ZM2.33366 15.6666H15.667V6.49996H11.5003C11.5003 6.95829 11.3371 7.35065 11.0107 7.67704C10.6844 8.00343 10.292 8.16663 9.83366 8.16663H8.16699C7.70866 8.16663 7.3163 8.00343 6.98991 7.67704C6.66352 7.35065 6.50033 6.95829 6.50033 6.49996H2.33366V15.6666ZM4.00033 14H9.00033V13.625C9.00033 13.3888 8.93435 13.1701 8.80241 12.9687C8.67046 12.7673 8.48644 12.6111 8.25033 12.5C7.97255 12.375 7.6913 12.2812 7.40658 12.2187C7.12185 12.1562 6.81977 12.125 6.50033 12.125C6.18088 12.125 5.8788 12.1562 5.59408 12.2187C5.30935 12.2812 5.0281 12.375 4.75033 12.5C4.51421 12.6111 4.33019 12.7673 4.19824 12.9687C4.0663 13.1701 4.00033 13.3888 4.00033 13.625V14ZM10.667 12.75H14.0003V11.5H10.667V12.75ZM6.50033 11.5C6.84755 11.5 7.14269 11.3784 7.38574 11.1354C7.6288 10.8923 7.75033 10.5972 7.75033 10.25C7.75033 9.90274 7.6288 9.6076 7.38574 9.36454C7.14269 9.12149 6.84755 8.99996 6.50033 8.99996C6.1531 8.99996 5.85796 9.12149 5.61491 9.36454C5.37185 9.6076 5.25033 9.90274 5.25033 10.25C5.25033 10.5972 5.37185 10.8923 5.61491 11.1354C5.85796 11.3784 6.1531 11.5 6.50033 11.5ZM10.667 10.25H14.0003V8.99996H10.667V10.25ZM8.16699 6.49996H9.83366V2.33329H8.16699V6.49996Z" fill="white"/>
</svg>
