<svg width="16" height="16" viewBox="0 0 16 16" fill="none" xmlns="http://www.w3.org/2000/svg">
<path d="M2.16667 12.875C2.91667 12.1389 3.78819 11.559 4.78125 11.1354C5.77431 10.7118 6.84722 10.5 8 10.5C9.15278 10.5 10.2257 10.7118 11.2188 11.1354C12.2118 11.559 13.0833 12.1389 13.8333 12.875V2.16667H2.16667V12.875ZM8 8.83333C8.80556 8.83333 9.49306 8.54861 10.0625 7.97917C10.6319 7.40972 10.9167 6.72222 10.9167 5.91667C10.9167 5.11111 10.6319 4.42361 10.0625 3.85417C9.49306 3.28472 8.80556 3 8 3C7.19444 3 6.50694 3.28472 5.9375 3.85417C5.36806 4.42361 5.08333 5.11111 5.08333 5.91667C5.08333 6.72222 5.36806 7.40972 5.9375 7.97917C6.50694 8.54861 7.19444 8.83333 8 8.83333ZM2.16667 15.5C1.70833 15.5 1.31597 15.3368 0.989583 15.0104C0.663194 14.684 0.5 14.2917 0.5 13.8333V2.16667C0.5 1.70833 0.663194 1.31597 0.989583 0.989583C1.31597 0.663194 1.70833 0.5 2.16667 0.5H13.8333C14.2917 0.5 14.684 0.663194 15.0104 0.989583C15.3368 1.31597 15.5 1.70833 15.5 2.16667V13.8333C15.5 14.2917 15.3368 14.684 15.0104 15.0104C14.684 15.3368 14.2917 15.5 13.8333 15.5H2.16667ZM3.83333 13.8333H12.1667V13.625C11.5833 13.1389 10.9375 12.7743 10.2292 12.5312C9.52083 12.2882 8.77778 12.1667 8 12.1667C7.22222 12.1667 6.47917 12.2882 5.77083 12.5312C5.0625 12.7743 4.41667 13.1389 3.83333 13.625V13.8333ZM8 7.16667C7.65278 7.16667 7.35764 7.04514 7.11458 6.80208C6.87153 6.55903 6.75 6.26389 6.75 5.91667C6.75 5.56944 6.87153 5.27431 7.11458 5.03125C7.35764 4.78819 7.65278 4.66667 8 4.66667C8.34722 4.66667 8.64236 4.78819 8.88542 5.03125C9.12847 5.27431 9.25 5.56944 9.25 5.91667C9.25 6.26389 9.12847 6.55903 8.88542 6.80208C8.64236 7.04514 8.34722 7.16667 8 7.16667Z" fill="white"/>
</svg>
