<svg width="24" height="18" viewBox="0 0 24 18" fill="none" xmlns="http://www.w3.org/2000/svg">
<path d="M10 12.8333C7.97222 12.8333 6.125 12.2673 4.45833 11.1354C2.79166 10.0035 1.58333 8.48609 0.833328 6.58331C1.58333 4.68054 2.79166 3.16317 4.45833 2.03123C6.125 0.899285 7.97222 0.333313 10 0.333313C12.0278 0.333313 13.875 0.899285 15.5417 2.03123C17.2083 3.16317 18.4167 4.68054 19.1667 6.58331C19.0833 6.79165 18.9965 6.99304 18.9062 7.18748C18.816 7.38192 18.7153 7.56942 18.6042 7.74998L17.2917 6.52081C16.5833 5.13192 15.5799 4.03123 14.2812 3.21873C12.9826 2.40623 11.5556 1.99998 10 1.99998C8.43055 1.99998 6.98958 2.41317 5.67708 3.23956C4.36458 4.06595 3.36111 5.18054 2.66666 6.58331C3.36111 7.98609 4.36458 9.10067 5.67708 9.92706C6.98958 10.7535 8.43055 11.1666 10 11.1666C10.1528 11.1666 10.3021 11.1632 10.4479 11.1562C10.5937 11.1493 10.7431 11.1319 10.8958 11.1041C10.8403 11.3819 10.8125 11.6666 10.8125 11.9583C10.8125 12.25 10.8403 12.5347 10.8958 12.8125C10.7431 12.8264 10.5937 12.8333 10.4479 12.8333H10ZM10 10.3333C8.95833 10.3333 8.07291 9.96873 7.34375 9.23956C6.61458 8.5104 6.25 7.62498 6.25 6.58331C6.25 5.54165 6.61458 4.65623 7.34375 3.92706C8.07291 3.1979 8.95833 2.83331 10 2.83331C11.0417 2.83331 11.9271 3.1979 12.6562 3.92706C13.3854 4.65623 13.75 5.54165 13.75 6.58331C13.75 6.68054 13.7465 6.77429 13.7396 6.86456C13.7326 6.95484 13.7222 7.04859 13.7083 7.14581L12.4167 8.33331C12.1528 8.5972 11.9167 8.87845 11.7083 9.17706C11.5 9.47567 11.3264 9.79165 11.1875 10.125C10.9931 10.1944 10.7986 10.2465 10.6042 10.2812C10.4097 10.316 10.2083 10.3333 10 10.3333ZM10 8.83331C10.625 8.83331 11.1562 8.61456 11.5937 8.17706C12.0312 7.73956 12.25 7.20831 12.25 6.58331C12.25 5.95831 12.0312 5.42706 11.5937 4.98956C11.1562 4.55206 10.625 4.33331 10 4.33331C9.375 4.33331 8.84375 4.55206 8.40625 4.98956C7.96875 5.42706 7.75 5.95831 7.75 6.58331C7.75 7.20831 7.96875 7.73956 8.40625 8.17706C8.84375 8.61456 9.375 8.83331 10 8.83331Z" fill="white"/>
<mask id="mask0_1_226" style="mask-type:alpha" maskUnits="userSpaceOnUse" x="12" y="6" width="12" height="12">
<rect x="12" y="5.99994" width="12" height="12" fill="#D9D9D9"/>
</mask>
<g mask="url(#mask0_1_226)">
<path d="M19 14.9999L18.3 14.2749L20.075 12.4999H14V11.4999H20.075L18.3 9.72494L19 8.99994L22 11.9999L19 14.9999Z" fill="white"/>
</g>
</svg>
